<?xml version="1.0" standalone="no"?><!DOCTYPE svg PUBLIC "-//W3C//DTD SVG 1.1//EN" "http://www.w3.org/Graphics/SVG/1.1/DTD/svg11.dtd"><svg t="1702522414290" class="icon" viewBox="0 0 1024 1024" version="1.1" xmlns="http://www.w3.org/2000/svg" p-id="4263" width="290" height="290" xmlns:xlink="http://www.w3.org/1999/xlink"><path d="M255.936 973.952h511.872c17.6 0 32.128-14.4 32.128-32s-14.528-32-32.128-32h-511.872c-17.6 0-32 14.4-32 32s14.4 32 32 32zM545.664 846.656h403.776a63.36 63.36 0 0 0 43.392-16.32 57.472 57.472 0 0 0 18.368-41.088v-682.24a55.68 55.68 0 0 0-18.88-41.024 60.672 60.672 0 0 0-41.344-16h-876.032a63.68 63.68 0 0 0-43.648 16 55.68 55.68 0 0 0-18.496 41.152v682.624a56.768 56.768 0 0 0 18.88 40.832 60.8 60.8 0 0 0 41.28 16.064H545.664z m373.504-62.016H105.408a25.6 25.6 0 0 1-25.344-25.92v-619.392c0-14.144 11.52-25.344 25.344-25.344h813.76c13.632 0 24.64 11.2 24.64 25.344v619.392a25.344 25.344 0 0 1-24.64 25.92z m0 0" fill="#dbdbdb" p-id="4264"></path><path d="M209.408 625.536h54.528c2.368 0 4.992-1.344 5.76-4.032l27.776-73.984a6.592 6.592 0 0 1 5.888-4.032h105.152c2.496 0 4.864 1.472 5.888 4.032l27.776 73.984a6.08 6.08 0 0 0 5.632 4.032h54.656a6.016 6.016 0 0 0 4.992-2.688 6.912 6.912 0 0 0 1.024-6.016l-121.984-307.2a6.72 6.72 0 0 0-5.888-3.84h-49.024a6.208 6.208 0 0 0-5.888 3.84l-121.856 307.2c-0.768 1.92-0.768 4.416 0.384 6.016 1.28 1.664 3.392 2.752 5.504 2.688h-0.32z m112.512-143.872l33.152-83.456c0.64-0.96 1.856-1.984 2.88-1.984 1.344 0 2.624 1.088 3.008 1.984l33.28 83.648a5.312 5.312 0 0 1-0.256 2.88c-0.896 0.832-1.6 1.536-2.752 1.536h-66.368c-0.768 0-1.984-0.768-2.752-1.536a5.376 5.376 0 0 1-0.192-3.072z m234.24 143.872h107.008c52.864 0 93.12-14.016 121.024-42.944 26.624-27.648 39.744-66.496 39.744-116.864 0-50.304-13.12-89.408-38.656-116.416-28.032-29.12-68.224-43.456-121.28-43.456h-107.904c-3.008 0-6.4 1.408-8.896 3.52a16.128 16.128 0 0 0-3.392 9.216v294.336a12.48 12.48 0 0 0 12.352 12.608z m100.672-268.352c37.632 0 65.28 8.192 82.752 25.472 16.512 17.024 25.152 43.648 25.152 80.768 0 36.032-8.64 62.912-25.856 80.128-17.472 17.472-45.248 26.368-82.624 26.368h-47.36a5.696 5.696 0 0 1-4.48-1.792c-1.28-1.28-1.728-2.56-1.728-4.544v-200.128c0-3.456 2.624-6.272 6.272-6.272h47.872z m0 0" fill="#dbdbdb" p-id="4265"></path></svg>