<svg t="1694584957494" class="icon" viewBox="0 0 1024 1024" version="1.1" xmlns="http://www.w3.org/2000/svg" p-id="4063" width="300" height="300"><path d="M845.463704 961.327407c-30.340741 0-60.681481-11.377778-84.005926-34.133333l-253.155556-244.811852c-11.282963-10.903704-11.567407-28.918519-0.663703-40.201481 10.903704-11.282963 28.918519-11.567407 40.201481-0.663704l253.25037 244.906667 0.094815 0.094815c25.031111 24.462222 65.232593 23.988148 89.694815-1.042963 11.851852-12.136296 18.299259-28.16 18.10963-45.037037-0.18963-16.877037-6.921481-32.711111-19.057778-44.562963l-253.155556-244.811852c-11.282963-10.903704-11.567407-28.918519-0.663703-40.201482 10.903704-11.282963 28.918519-11.567407 40.201481-0.663703l253.25037 244.906666 0.094815 0.094815c47.407407 46.364444 48.355556 122.69037 1.991111 170.192593-23.608889 23.893333-54.897778 35.934815-86.186666 35.934814z" p-id="4064" fill="#dbdbdb"></path><path d="M387.982222 722.488889c-44.657778 0-88.082963-8.722963-128.853333-26.074074-39.442963-16.687407-74.808889-40.580741-105.244445-70.921482-30.435556-30.435556-54.234074-65.801481-70.921481-105.244444-17.351111-40.77037-26.074074-84.195556-26.074074-128.853333C56.888889 338.773333 69.594074 286.340741 93.582222 239.881481c4.171852-8.059259 11.851852-13.558519 20.764445-15.075555 8.912593-1.422222 18.014815 1.422222 24.462222 7.774815l166.020741 162.322963 79.36-16.402963 9.955555-73.765926-165.451852-161.659259c-6.542222-6.352593-9.576296-15.454815-8.248889-24.557037 1.327407-9.007407 6.921481-16.877037 14.980741-21.048889 46.743704-24.367407 99.555556-37.167407 152.557037-37.167408 44.657778 0 88.082963 8.722963 128.853334 26.074074 39.442963 16.687407 74.808889 40.580741 105.244444 70.921482 30.435556 30.435556 54.234074 65.801481 70.921481 105.244444 17.256296 40.865185 26.074074 84.195556 26.074075 128.853334s-8.722963 88.082963-26.074075 128.853333c-16.687407 39.442963-40.580741 74.808889-70.921481 105.244444-30.435556 30.435556-65.801481 54.234074-105.244444 70.921482-40.77037 17.351111-84.195556 26.074074-128.853334 26.074074zM128.568889 302.174815c-9.860741 28.444444-14.791111 58.311111-14.791111 89.220741C113.777778 542.625185 236.752593 665.6 387.982222 665.6s274.204444-122.974815 274.204445-274.204444-122.974815-274.204444-274.204445-274.204445c-30.90963 0-60.776296 4.93037-89.315555 14.791111L444.017778 274.014815c6.447407 6.257778 9.481481 15.265185 8.343703 24.177778l-14.506666 107.899259c-1.611852 11.946667-10.619259 21.617778-22.471111 24.082963L301.511111 453.594074c-9.291852 1.896296-18.868148-0.853333-25.6-7.49037L128.568889 302.174815z" p-id="4065" fill="#dbdbdb"></path></svg>