<svg t="1699238606872" class="icon" viewBox="0 0 1444 1024" version="1.1" xmlns="http://www.w3.org/2000/svg" p-id="6192" width="270" height="270"><path d="M968.880226 203.482424a37.093923 37.093923 0 0 0-53.415249 0L738.719853 380.227548l-175.231693-175.231692-1.290868-1.305706-0.207726-0.207726a37.093923 37.093923 0 0 0-51.159939 53.667488l135.140581 135.229605H567.716868a37.093923 37.093923 0 0 0 0 74.187846h133.923899v111.415307H567.716868a37.093923 37.093923 0 0 0 0 74.187846h133.909062v179.237836a37.093923 37.093923 0 1 0 74.187846 0V652.200191h133.909061a37.093923 37.093923 0 0 0 0-74.187846h-133.894224v-111.430144h133.909062a37.093923 37.093923 0 1 0 0-74.187846h-78.223665l137.292028-137.366216a37.093923 37.093923 0 0 0 0.074188-51.57539z m0 0" fill="#dbdbdb" p-id="6193"></path><path d="M1376.260525 705.185151a85.968876 85.968876 0 0 1 22.256354-83.669053c2.507549-2.507549 4.896398-5.074449 7.240734-7.730373a154.058481 154.058481 0 0 0 0-203.408236q-3.486829-3.976469-7.240734-7.730374a86.057901 86.057901 0 0 1-0.252238-121.668067 154.31072 154.31072 0 0 0 45.135885-109.605124C1443.400526 135.19993 1424.734864 0.089025 1306.776189 0.089025H137.323498C19.364823 0.089025 0.817862 135.19993 0.699161 171.373924a154.31072 154.31072 0 0 0 45.135886 109.605124 85.924363 85.924363 0 0 1 25.075491 60.834033 85.449561 85.449561 0 0 1-12.789984 44.957835 86.191439 86.191439 0 0 1-12.537746 15.831686q-3.739067 3.739067-7.240734 7.730374a154.058481 154.058481 0 0 0 0 203.408236q3.501666 3.976469 7.240734 7.730373a86.057901 86.057901 0 0 1 12.537746 15.816849 85.672124 85.672124 0 0 1 12.789984 44.972672 85.924363 85.924363 0 0 1-25.075491 60.834034A154.31072 154.31072 0 0 0 0.699161 852.700264c0.118701 36.188831 18.695337 171.299736 136.624337 171.299736h1169.467529c117.958675 0 136.505637-135.110905 136.639174-171.270061a154.42942 154.42942 0 0 0-45.135885-109.545773 85.909526 85.909526 0 0 1-22.033791-37.999015z m-75.923841 243.618048H144.222968c-16.009737 0-67.778016-10.386298-67.778016-96.206798a87.230069 87.230069 0 0 1 1.142493-14.021503 85.775987 85.775987 0 0 1 23.932999-46.871881c2.878488-2.878488 5.638276-5.935028 8.279363-9.006405a154.874547 154.874547 0 0 0-8.709653-210.040629 85.27151 85.27151 0 0 1 0-121.297128 154.31072 154.31072 0 0 0 45.581013-109.427073 155.690613 155.690613 0 0 0-2.121773-25.861883 154.31072 154.31072 0 0 0-34.749587-74.751674c-2.641087-3.101052-5.400875-6.113079-8.279363-9.006404a86.399165 86.399165 0 0 1-25.075492-60.834034c0-85.790825 51.768279-96.147448 67.778016-96.147448h1156.113716c15.9949 0 67.778016 10.386298 67.778016 96.147448a86.057901 86.057901 0 0 1-25.09033 60.834034c-2.878488 2.893326-5.623439 5.935028-8.279363 9.006404a154.874547 154.874547 0 0 0 3.516504 204.610079q2.537224 2.789463 5.193149 5.430551a85.27151 85.27151 0 0 1 0 121.297128 154.874547 154.874547 0 0 0-8.739328 210.040629c2.641087 3.11589 5.400875 6.127916 8.279363 9.006405a86.057901 86.057901 0 0 1 25.09033 60.834033c0 85.790825-51.783116 96.206799-67.778016 96.206799z m0 0" fill="#dbdbdb" p-id="6194"></path></svg>