<svg t="1699238509650" class="icon" viewBox="0 0 1024 1024" version="1.1" xmlns="http://www.w3.org/2000/svg" p-id="4916" width="270" height="270"><path d="M521.728 448H408.576V388.608h113.152c14.336 0 26.112-11.776 26.112-26.112s-11.776-26.112-26.112-26.112H432.128l98.304-98.304c3.584-3.584 6.144-8.192 7.168-12.288 3.584-13.824-4.608-28.16-17.92-32.256h-1.024c-2.048-0.512-4.096-0.512-6.144-0.512-7.168 0-13.824 3.072-18.432 7.68L387.072 307.2l-107.52-107.008c-4.608-4.608-11.264-7.168-17.92-7.168-6.144 0-12.8 2.56-17.92 7.168-5.12 4.608-7.68 11.264-8.192 18.432 0 7.168 2.56 13.824 7.68 18.432l98.304 98.304H242.688c-14.336 0-26.112 11.776-26.112 26.112s11.776 26.112 26.112 26.112h113.152v59.904H242.688c-14.336 0-26.112 11.776-26.112 26.112s11.776 26.112 26.112 26.112h113.152v86.016c0 14.336 11.776 26.112 26.112 26.112s26.112-11.776 26.112-26.112V500.224h113.152c14.336 0 26.112-11.776 26.112-26.112 0.512-14.848-10.752-26.112-25.6-26.112z" p-id="4917" fill="#dbdbdb"></path><path d="M874.496 0c40.448 0 78.336 15.872 106.496 44.544s43.52 66.048 43.008 106.496v207.872c0 8.704-4.096 17.408-10.752 23.04-32.768 26.624-54.784 62.464-64 102.912-3.072 13.312-15.36 22.016-28.672 22.016-9.216 0-17.92-4.096-23.552-11.264a28.5184 28.5184 0 0 1-5.12-25.6c11.264-46.592 35.84-88.576 70.144-121.344l2.56-2.048 1.024-1.024V150.528c0-50.176-40.448-91.136-90.624-91.136H150.016c-50.176 0-90.624 40.96-90.624 91.136V344.576l0.512 0.512 2.56 2.56c49.152 47.104 77.312 113.152 77.312 181.248 0 68.096-28.16 134.144-77.312 181.248l-2.048 2.048-0.512 0.512v159.744c0 50.176 40.448 91.136 90.624 91.136h302.08c16.384 0 29.696 13.312 29.696 29.696 0 16.384-13.312 29.696-29.696 29.696h-302.08C67.584 1024 0 955.904 0 872.96v-173.056c0-8.704 4.096-17.408 10.752-23.04 44.032-36.864 69.632-90.624 69.632-147.456 0.512-56.832-24.576-111.104-69.632-147.456C4.096 375.808 0 367.616 0 358.912V150.528C0 67.584 67.584 0 150.528 0h723.968M992.256 721.408c7.68 0 15.36 3.072 21.504 8.192 6.144 5.632 9.728 13.312 9.728 22.016 0 8.192-3.072 16.384-8.704 22.528l-222.72 238.08c-4.096 4.096-7.68 6.144-12.8 8.192-5.632 2.048-9.728 3.072-12.8 3.072-8.704 0-16.384-3.072-22.016-9.216l-107.52-107.008c-6.144-6.144-9.216-13.824-9.216-22.016 0-8.704 3.072-16.384 9.216-22.016 6.144-6.144 13.824-9.216 22.016-9.216 8.704 0 16.384 3.072 22.016 9.216l79.872 79.36 2.048 2.048 3.584 3.584 3.584-3.584 2.048-2.048 197.632-210.944c6.144-6.656 13.824-10.24 22.528-10.24" p-id="4918" fill="#dbdbdb"></path></svg>