<?xml version="1.0" standalone="no"?><!DOCTYPE svg PUBLIC "-//W3C//DTD SVG 1.1//EN" "http://www.w3.org/Graphics/SVG/1.1/DTD/svg11.dtd"><svg t="1693188812755" class="icon" viewBox="0 0 1024 1024" version="1.1" xmlns="http://www.w3.org/2000/svg" p-id="8651" width="290" height="290" data-spm-anchor-id="a313x.search_index.0.i11.7c6c3a81YQC23y" xmlns:xlink="http://www.w3.org/1999/xlink"><path d="M469.333333 469.333333m0 42.666667l0 0q0 42.666667-42.666666 42.666667l-256 0q-42.666667 0-42.666667-42.666667l0 0q0-42.666667 42.666667-42.666667l256 0q42.666667 0 42.666666 42.666667Z" fill="#dbdbdb" p-id="8652"></path><path d="M725.333333 640m0 42.666667l0 0q0 42.666667-42.666666 42.666666l-512 0q-42.666667 0-42.666667-42.666666l0 0q0-42.666667 42.666667-42.666667l512 0q42.666667 0 42.666666 42.666667Z" fill="#dbdbdb" p-id="8653" data-spm-anchor-id="a313x.search_index.0.i12.7c6c3a81YQC23y"></path><path d="M896 810.666667m0 42.666666l0 0q0 42.666667-42.666667 42.666667l-682.666666 0q-42.666667 0-42.666667-42.666667l0 0q0-42.666667 42.666667-42.666666l682.666666 0q42.666667 0 42.666667 42.666666Z" fill="#dbdbdb" p-id="8654"></path><path d="M213.333333 128l0 170.666667 597.333334 0 0-170.666667-597.333334 0m0-85.333333l597.333334 0a85.333333 85.333333 0 0 1 85.333333 85.333333l0 170.666667a85.333333 85.333333 0 0 1-85.333333 85.333333l-597.333334 0a85.333333 85.333333 0 0 1-85.333333-85.333333l0-170.666667a85.333333 85.333333 0 0 1 85.333333-85.333333z" fill="#dbdbdb" p-id="8655"></path></svg>