<?xml version="1.0" standalone="no"?><!DOCTYPE svg PUBLIC "-//W3C//DTD SVG 1.1//EN" "http://www.w3.org/Graphics/SVG/1.1/DTD/svg11.dtd"><svg t="1693188403302" class="icon" viewBox="0 0 1024 1024" version="1.1" xmlns="http://www.w3.org/2000/svg" p-id="6471" width="270" height="270" xmlns:xlink="http://www.w3.org/1999/xlink"><path d="M1006.7968 617.728a80.7424 80.7424 0 0 0-23.296-53.3504L457.216 33.28A53.504 53.504 0 0 0 419.328 17.408H99.6352C54.272 17.408 17.5616 53.76 17.5616 98.6624v328.0384c0 3.5328 0.3072 6.912 1.024 10.24l0.512 2.5088a51.0976 51.0976 0 0 0 13.9776 24.32l262.7584 259.584 262.8096 259.584c6.0416 5.9392 12.8 10.8032 19.9168 14.5408a83.1488 83.1488 0 0 0 96.256-14.5408l307.968-304.4352a85.504 85.504 0 0 0 11.264-13.8752 74.496 74.496 0 0 0 5.888-11.1104 78.4384 78.4384 0 0 0 6.8096-35.7376z m-79.2064 3.84v0.2048l-0.1024 0.2048-0.256 0.256-308.0704 304.2304a2.56 2.56 0 0 1-1.024 0.6656 5.5808 5.5808 0 0 1-1.4336 0.2048 3.6864 3.6864 0 0 1-1.6384-0.3072l-0.768-0.512-262.8096-259.6352L96.768 415.1808V98.5088c0-0.6656 0.9728-1.9968 2.8672-1.9968h308.736l518.656 523.4176 0.3072 0.3072c0.1536 0.1024 0.1536 0.2048 0.256 0.3584l0.1024 0.3072v0.1024c0 0.1024 0 0.3584-0.1024 0.512zM160.2048 242.944a78.336 78.336 0 1 0 156.672 0 78.336 78.336 0 0 0-156.672 0z" fill="#dbdbdb" p-id="6472"></path></svg>